<svg width="252" height="42" viewBox="0 0 252 42" fill="none" xmlns="http://www.w3.org/2000/svg">
<path d="M29.566 28.4398L32.148 10.4688H27.13L23.998 32.4287H37.225L37.775 28.4398H29.566Z" fill="black"/>
<path d="M44.8097 10.4678L41.6777 32.4278H46.6937L49.8257 10.4678H44.8097Z" fill="black"/>
<path d="M68.6335 10.4678L61.4055 26.0118L59.0185 10.4678H54.1055L58.2385 32.4278H62.7555L73.5435 10.4678H68.6335Z" fill="black"/>
<path d="M18.9888 12.5504C18.1663 11.6931 17.1744 11.0164 16.0762 10.5633C14.978 10.1101 13.7975 9.89052 12.6098 9.91837C5.81582 9.84537 2.23982 13.9854 1.19982 21.2954V21.3254C0.63982 25.2524 1.32282 28.3254 3.01282 30.2784C3.81843 31.1189 4.7878 31.7852 5.86105 32.2364C6.93431 32.6875 8.08866 32.9139 9.25282 32.9014C16.0268 33.2304 19.9338 28.8084 20.7608 21.3764C21.2198 17.2514 20.7208 14.4764 18.9958 12.5494M15.5468 21.4494C14.7718 26.8804 13.0728 29.0834 9.86582 29.0834C9.34243 29.0989 8.82221 28.9969 8.3435 28.7847C7.86479 28.5725 7.4398 28.2556 7.09982 27.8574C6.08282 26.6854 5.82382 24.8184 6.31182 21.3984V21.3684C7.07082 16.1784 8.73482 13.7224 11.9428 13.7224C12.4636 13.6854 12.9861 13.7635 13.4733 13.9512C13.9605 14.1389 14.4004 14.4316 14.7618 14.8084C15.7808 15.9824 16.0268 18.0144 15.5368 21.4524" fill="black"/>
<path d="M77.7218 10.4678L74.5898 32.4278H88.1678L88.6918 28.7528H80.1308L81.0488 22.7378H88.7488L89.2188 19.0248H81.5188L82.2188 14.1418H90.3188L90.8428 10.4668L77.7218 10.4678Z" fill="black"/>
<path d="M119.191 1C115.137 1 111.173 2.2023 107.802 4.45487C104.431 6.70744 101.803 9.9091 100.252 13.655C98.7003 17.4009 98.2943 21.5227 99.0853 25.4994C99.8763 29.476 101.829 33.1287 104.696 35.9957C107.563 38.8627 111.215 40.8151 115.192 41.6061C119.169 42.3971 123.291 41.9911 127.036 40.4395C130.782 38.8879 133.984 36.2604 136.237 32.8892C138.489 29.518 139.691 25.5545 139.691 21.5C139.691 16.0631 137.532 10.8488 133.687 7.00431C129.843 3.15982 124.628 1 119.191 1ZM129.973 23.99C127.732 33.698 121.086 40.453 115.129 39.078C109.172 37.703 106.16 28.718 108.401 19.01C110.642 9.302 117.288 2.547 123.245 3.922C129.202 5.297 132.214 14.282 129.973 23.99Z" fill="#82DC28"/>
<path d="M125.416 11.906C124.733 14.841 122.48 16.818 120.384 16.334C118.288 15.85 117.137 13.079 117.809 10.149C118.481 7.21897 120.737 5.24897 122.834 5.72797C124.931 6.20697 126.09 8.97997 125.416 11.906Z" fill="#FF7878"/>
<path d="M155.691 24.2971L164.778 10.3721H159.339L153.777 19.2721L150.777 10.3721H145.66L150.715 23.5781L149.467 32.3311H154.483L155.656 24.3491L155.691 24.2971Z" fill="black"/>
<path d="M182.631 12.4482C181.804 11.5864 180.807 10.9062 179.704 10.4508C178.6 9.99543 177.413 9.77488 176.22 9.8032C169.392 9.7292 165.798 13.8902 164.75 21.2372V21.2682C164.187 25.2152 164.873 28.3022 166.573 30.2682C167.382 31.1129 168.357 31.7826 169.435 32.236C170.514 32.6893 171.674 32.9168 172.844 32.9042C179.652 33.2352 183.578 28.7912 184.409 21.3222C184.87 17.1762 184.368 14.3882 182.635 12.4512M179.168 21.3982C178.389 26.8562 176.681 29.0702 173.458 29.0702C172.933 29.0844 172.411 28.9809 171.931 28.7672C171.451 28.5535 171.025 28.235 170.685 27.8352C169.663 26.6572 169.403 24.7792 169.893 21.3442V21.3142C170.655 16.0982 172.328 13.6292 175.552 13.6292C176.075 13.592 176.6 13.6704 177.09 13.859C177.579 14.0475 178.022 14.3415 178.385 14.7202C179.409 15.9002 179.657 17.9422 179.164 21.3982" fill="black"/>
<path d="M225.004 10.3721L222.927 25.3631L217.444 10.3721H212.253L209.121 32.3321H213.754L216.054 16.8711L221.618 32.3321H226.503L229.635 10.3721H225.004Z" fill="black"/>
<path d="M250.382 25.0573C249.734 29.4803 246.365 33.3573 240.133 32.9503C238.905 32.94 237.697 32.6432 236.604 32.0835C235.511 31.5237 234.564 30.7166 233.839 29.7263C232.505 27.9093 231.747 24.8983 232.411 20.8763C233.773 12.6273 237.892 9.63829 243.611 9.88729C247.552 10.0583 249.817 11.9203 251.028 15.4323L246.753 16.8533C246.562 15.997 246.109 15.2215 245.457 14.6348C244.805 14.0481 243.986 13.6795 243.115 13.5803C239.885 13.3133 237.898 16.0943 237.146 21.3673C236.705 24.4553 236.456 28.5323 240.406 28.9903C243.119 29.3043 245.174 28.1103 246.106 24.6903C246.19 24.4018 246.247 24.1057 246.275 23.8063H241.511L242.048 20.0703L250.905 20.0613C250.934 20.1893 250.655 23.1613 250.377 25.0613" fill="black"/>
<path d="M202.268 10.4522L200.358 23.9732C199.858 26.7422 199.837 27.5182 198.596 28.5492C197.839 29.039 196.942 29.2671 196.043 29.1987C195.144 29.1302 194.292 28.769 193.617 28.1702C192.627 27.1622 193.012 25.0832 193.281 22.9502L194.873 10.4502H189.857L188.044 24.5132C187.56 28.2032 188.844 30.2012 191.274 31.7552C193.204 32.8332 195.435 33.2468 197.622 32.9322C200.697 32.5132 202.722 31.3012 203.912 29.2512C204.694 27.7773 205.171 26.1607 205.312 24.4982L207.287 10.4492L202.268 10.4522Z" fill="black"/>
</svg>
